Normalized EMG Linear Envelopes
nRows=203
nColumns=4

endheader
time	 med_gas_r	  soleus_r	 tib_ant_r	
2.18736	  0.111047	  0.103546	  0.039775	
2.24986	  0.112654	  0.102580	  0.039513	
2.31235	  0.116627	  0.105040	  0.039324	
2.37485	  0.121311	  0.109886	  0.038652	
2.43734	  0.125261	  0.115246	  0.037002	
2.49984	  0.125782	  0.120333	  0.035022	
2.56234	  0.123368	  0.127593	  0.034061	
2.62483	  0.119936	  0.136443	  0.034252	
2.68733	  0.117666	  0.140793	  0.035058	
2.74982	  0.116978	  0.136655	  0.035767	
2.81232	  0.118414	  0.128413	  0.035824	
2.87482	  0.124195	  0.121798	  0.035883	
2.93731	  0.132902	  0.118876	  0.036450	
2.99981	  0.140235	  0.120743	  0.037130	
3.0623	  0.144196	  0.127158	  0.037448	
3.1248	  0.142532	  0.133226	  0.037155	
3.1873	  0.134077	  0.135805	  0.036283	
3.24979	  0.123809	  0.132068	  0.035715	
3.31229	  0.116269	  0.124332	  0.035818	
3.37478	  0.112363	  0.117556	  0.036087	
3.43728	  0.110856	  0.117900	  0.036674	
3.49978	  0.112219	  0.124890	  0.037434	
3.56227	  0.116278	  0.133806	  0.038013	
3.62477	  0.119672	  0.138806	  0.037603	
3.68726	  0.119444	  0.136620	  0.036327	
3.74976	  0.114724	  0.128180	  0.034371	
3.81226	  0.109985	  0.119165	  0.032765	
3.87475	  0.112939	  0.113013	  0.033108	
3.93725	  0.128873	  0.111789	  0.037631	
3.99974	  0.154375	  0.120174	  0.049156	
4.06224	  0.180045	  0.145872	  0.069639	
4.12474	  0.210355	  0.192121	  0.095914	
4.18723	  0.247659	  0.251289	  0.119600	
4.24973	  0.285705	  0.294030	  0.135725	
4.31222	  0.301605	  0.318269	  0.142092	
4.37472	  0.303996	  0.343492	  0.147660	
4.43722	  0.315148	  0.376009	  0.154902	
4.49971	  0.334238	  0.394598	  0.164319	
4.56221	  0.347228	  0.395121	  0.175538	
4.6247	  0.364964	  0.412706	  0.192266	
4.6872	  0.387852	  0.449446	  0.213955	
4.7497	  0.399794	  0.471060	  0.234699	
4.81219	  0.421235	  0.493025	  0.250880	
4.87469	  0.440673	  0.524177	  0.268714	
4.93718	  0.433423	  0.509385	  0.282954	
4.99968	  0.410484	  0.426210	  0.290249	
5.06218	  0.374107	  0.334202	  0.300439	
5.12467	  0.348805	  0.263648	  0.313114	
5.18717	  0.358042	  0.218014	  0.328297	
5.24966	  0.386038	  0.204515	  0.347918	
5.31216	  0.420799	  0.221023	  0.386736	
5.37466	  0.456106	  0.253045	  0.444779	
5.43715	  0.458754	  0.268976	  0.503815	
5.49965	  0.421367	  0.245423	  0.552536	
5.56214	  0.373270	  0.201645	  0.575078	
5.62464	  0.352285	  0.160583	  0.564635	
5.68714	  0.347810	  0.134883	  0.532594	
5.74963	  0.352824	  0.126102	  0.502469	
5.81213	  0.361980	  0.130206	  0.480767	
5.87462	  0.359642	  0.140697	  0.460520	
5.93712	  0.360632	  0.152850	  0.436308	
5.99962	  0.361748	  0.162134	  0.421126	
6.06211	  0.353719	  0.164840	  0.414878	
6.12461	  0.360416	  0.160285	  0.420829	
6.1871	  0.365834	  0.153313	  0.450029	
6.2496	  0.358019	  0.144031	  0.499546	
6.3121	  0.365249	  0.133796	  0.545916	
6.37459	  0.380070	  0.129121	  0.587029	
6.43709	  0.392653	  0.131223	  0.614915	
6.49958	  0.415549	  0.137413	  0.629823	
6.56208	  0.431204	  0.142831	  0.626387	
6.62458	  0.441356	  0.143219	  0.587072	
6.68707	  0.444905	  0.137550	  0.527264	
6.74957	  0.429591	  0.130770	  0.482772	
6.81206	  0.412919	  0.130142	  0.467020	
6.87456	  0.389879	  0.133239	  0.467738	
6.93706	  0.366252	  0.137003	  0.468639	
6.99955	  0.358944	  0.139579	  0.466311	
7.06205	  0.367274	  0.138500	  0.471368	
7.12454	  0.395342	  0.137554	  0.482918	
7.18704	  0.425042	  0.136705	  0.498817	
7.24954	  0.434249	  0.135879	  0.511200	
7.31203	  0.430329	  0.137887	  0.506097	
7.37453	  0.434996	  0.145903	  0.485595	
7.43702	  0.448471	  0.156226	  0.459276	
7.49952	  0.457135	  0.160359	  0.413034	
7.56202	  0.455021	  0.156888	  0.369959	
7.62451	  0.458885	  0.150494	  0.349509	
7.68701	  0.446533	  0.148911	  0.350086	
7.7495	  0.425087	  0.153405	  0.357872	
7.812	  0.423564	  0.162108	  0.368270	
7.8745	  0.416013	  0.170909	  0.374418	
7.93699	  0.404871	  0.180838	  0.383431	
7.99949	  0.408465	  0.190346	  0.396390	
8.06198	  0.402059	  0.192781	  0.408241	
8.12448	  0.402869	  0.186535	  0.411216	
8.18698	  0.427433	  0.187322	  0.401024	
8.24947	  0.431872	  0.198263	  0.386641	
8.31197	  0.420748	  0.206202	  0.375951	
8.37446	  0.431727	  0.197071	  0.368633	
8.43696	  0.447001	  0.179859	  0.369755	
8.49946	  0.477079	  0.165214	  0.390789	
8.56195	  0.519575	  0.157064	  0.428744	
8.62445	  0.544348	  0.155812	  0.466235	
8.68694	  0.555223	  0.159322	  0.476088	
8.74944	  0.540472	  0.158320	  0.456269	
8.81194	  0.526951	  0.150265	  0.436574	
8.87443	  0.503453	  0.146780	  0.436490	
8.93693	  0.451765	  0.152448	  0.452762	
8.99942	  0.409400	  0.162544	  0.470962	
9.06192	  0.372864	  0.170292	  0.483031	
9.12442	  0.347566	  0.171695	  0.480464	
9.18691	  0.345994	  0.167725	  0.471235	
9.24941	  0.342003	  0.164372	  0.462749	
9.3119	  0.346129	  0.173414	  0.439972	
9.3744	  0.365379	  0.192580	  0.407444	
9.4369	  0.379600	  0.206861	  0.369897	
9.49939	  0.396333	  0.213956	  0.334441	
9.56189	  0.399119	  0.208041	  0.312813	
9.62438	  0.401323	  0.187396	  0.305889	
9.68688	  0.405379	  0.169627	  0.303781	
9.74938	  0.384262	  0.159306	  0.303494	
9.81187	  0.363940	  0.150333	  0.295910	
9.87437	  0.343876	  0.140372	  0.287666	
9.93686	  0.317316	  0.134676	  0.282985	
9.99936	  0.315423	  0.134179	  0.275577	
10.0619	  0.326650	  0.135596	  0.263286	
10.1244	  0.324467	  0.137848	  0.243639	
10.1868	  0.325383	  0.142324	  0.226686	
10.2493	  0.323621	  0.148373	  0.219914	
10.3118	  0.316031	  0.151026	  0.221085	
10.3743	  0.318712	  0.148296	  0.220029	
10.4368	  0.315204	  0.143845	  0.209926	
10.4993	  0.306437	  0.138543	  0.198860	
10.5618	  0.312040	  0.131943	  0.189044	
10.6243	  0.314997	  0.125572	  0.178229	
10.6868	  0.292194	  0.122400	  0.170402	
10.7493	  0.276576	  0.121534	  0.171885	
10.8118	  0.278242	  0.121749	  0.166791	
10.8743	  0.274693	  0.120126	  0.151997	
10.9368	  0.276198	  0.117364	  0.132451	
10.9993	  0.283374	  0.118238	  0.114928	
11.0618	  0.287117	  0.119639	  0.096860	
11.1243	  0.297009	  0.117824	  0.080570	
11.1868	  0.301998	  0.115674	  0.069849	
11.2493	  0.283760	  0.114856	  0.067472	
11.3118	  0.254252	  0.114973	  0.069350	
11.3743	  0.243778	  0.115228	  0.067347	
11.4368	  0.247787	  0.116747	  0.063329	
11.4993	  0.232456	  0.118667	  0.060038	
11.5618	  0.211184	  0.118100	  0.056831	
11.6243	  0.211740	  0.115149	  0.056507	
11.6868	  0.233375	  0.113027	  0.057686	
11.7492	  0.253374	  0.113345	  0.055721	
11.8117	  0.239720	  0.114486	  0.050902	
11.8742	  0.212394	  0.113657	  0.046617	
11.9367	  0.204739	  0.111348	  0.043848	
11.9992	  0.226445	  0.108365	  0.042220	
12.0617	  0.262184	  0.105549	  0.041030	
12.1242	  0.278663	  0.104121	  0.040382	
12.1867	  0.284169	  0.104551	  0.039843	
12.2492	  0.301360	  0.105828	  0.038491	
12.3117	  0.303301	  0.106176	  0.037334	
12.3742	  0.279977	  0.108294	  0.037299	
12.4367	  0.275602	  0.115188	  0.038128	
12.4992	  0.292733	  0.123287	  0.038931	
12.5617	  0.293636	  0.126244	  0.039652	
12.6242	  0.290255	  0.124916	  0.040114	
12.6867	  0.301770	  0.122433	  0.040503	
12.7492	  0.299707	  0.120878	  0.040592	
12.8117	  0.288808	  0.119994	  0.039676	
12.8742	  0.285315	  0.118816	  0.039052	
12.9367	  0.271856	  0.119655	  0.038456	
12.9992	  0.253473	  0.123493	  0.038070	
13.0617	  0.247664	  0.128629	  0.038139	
13.1242	  0.261871	  0.132718	  0.038677	
13.1867	  0.280595	  0.133426	  0.040163	
13.2492	  0.289879	  0.130124	  0.041022	
13.3116	  0.295446	  0.124830	  0.040680	
13.3741	  0.285313	  0.119448	  0.039938	
13.4366	  0.275160	  0.116023	  0.038562	
13.4991	  0.277352	  0.117508	  0.037905	
13.5616	  0.273854	  0.124990	  0.038560	
13.6241	  0.266223	  0.134246	  0.040519	
13.6866	  0.278723	  0.142120	  0.043142	
13.7491	  0.297425	  0.145990	  0.044546	
13.8116	  0.301575	  0.144381	  0.044577	
13.8741	  0.304060	  0.138591	  0.043810	
13.9366	  0.305987	  0.130223	  0.042150	
13.9991	  0.292569	  0.123370	  0.041535	
14.0616	  0.290163	  0.120644	  0.042252	
14.1241	  0.295895	  0.121348	  0.042922	
14.1866	  0.280201	  0.126204	  0.043020	
14.2491	  0.261967	  0.133436	  0.042289	
14.3116	  0.263449	  0.137242	  0.041465	
14.3741	  0.265270	  0.134280	  0.041351	
14.4366	  0.247939	  0.126682	  0.041094	
14.4991	  0.236140	  0.116668	  0.041025	
14.5616	  0.240470	  0.109564	  0.041372	
14.6241	  0.236832	  0.106482	  0.041597	
14.6866	  0.219702	  0.107219	  0.042728	
14.7491	  0.208071	  0.107861	  0.043922	
14.8116	  0.201771	  0.107145	  0.043954	
